<svg xmlns="http://www.w3.org/2000/svg" width="933.075" height="330.532" viewBox="0 0 1984 702.812">
  <defs>
    <style>
      .cls-1 {
        fill: #ff5b4d;
        fill-rule: evenodd;
      }
    </style>
  </defs>
  <path id="Color_Fill_2" data-name="Color Fill 2" class="cls-1" d="M1258,270c5.64,2.87,23.4,21.522,27,27h-3c-2.62-4.184-21.5-22.821-24-22-5.21,1.935-22.07,25.105-25,22-8.88-5.934-14.65-19.278-25-23q-11.505,12-23,24c-10.18-5.346-15.44-21.58-27-24-3.18,4.96-19.1,21.826-25,23v-1h1c3.17-4.968,20.9-24.319,27-25,3.32,5.136,18.35,21.009,24,23,3.32-5.188,19.31-22.252,26-23q10.995,11.5,22,23c2.94,0.85,5.67-4.679,7-6C1245.82,282.226,1253.52,276.98,1258,270ZM371,288c12.372,3.61,14.338,20.625,28,23,1.806-5.364,18.654-21.321,25-22,2.735,4.275,19.331,21.954,24,23,3.316-5.188,19.313-22.252,26-23,4.452,7,12.08,15.47,19,20v1h-1v1h-1v-1c-7.068-4.766-11.807-16.107-21-18-2.519,4.009-21.742,24.623-24,23-8.879-5.934-14.653-19.278-25-23-3.018,4.716-19.572,22.925-25,24-3.7-5.671-18.63-21.83-26-23-3.379,5.253-17.2,20.964-23,23v-1c-0.8-1.021-.355-0.274-1-2h1C350.767,302.4,364.906,297.106,371,288ZM106,716c67.116-.8,100.559,24.572,123,68,8.5,16.458,17.753,47.654,11,75a156.509,156.509,0,0,1-9,27h1c4.594-7.054,13.965-16.38,21-21v3c-1.131,1.679-.825,5.142-2,7l-22,21-27,31c-8.193,6.166-15.865,11.865-23,19-7.817,7.817-18.988,25.838-33,26v-1h1l23-24h-1c-5.538,4.878-18.241,6.935-26,9h-6c-4.939,2.342-5.169,8.516-12,10-1.552-1.5-1.838-.777-3-3a19.893,19.893,0,0,0,6-6H104c-3.762,2.991-35.918-11.747-42-15-30.979-16.567-48.2-40.952-59-78-2.743-9.41-6.131-29.7-3-43,11.023-46.846,31.71-75.925,70-95l24-8C98.13,716.82,102.87,717.96,106,716Zm1878,39h-3c-3.95-6.085-27.9-31.841-34-34-3.13,4.821-30.56,33.428-35,35-4.01-6.186-28.83-32.815-35-35-3.07,4.726-30.7,33.477-35,35-3.83-5.9-29.14-32.926-35-35-3.58,5.545-29.25,32.841-35,34v-3c11.49-7.68,25.72-31.944,37-36,3.89,5.982,29.05,32.893,35,35,3.2-4.919,30.42-33.377,35-35,3.83,5.9,29.14,32.926,35,35,4.47-7,12.21-12.185,18-18q4.005-5,8-10c1.91-1.938,7.16-7.488,9-6,9.79,6.363,16.82,17.818,25,26C1977.71,746.706,1982.74,748.822,1984,755ZM238,855c0.756-13.769,2.451-31.27-1-44-15-55.316-75.341-114.19-153-88-15.374,5.185-29.09,14.051-41,23C19.879,763.372-9.053,815.765,4,862c5.862,20.763,14.946,35.2,26,50,8.734,11.694,18.783,19.706,32,27,3.7,2.042,9.783,7.67,14,6,2.508-1.579,3.936-2.861,5-6-42.366-9.589-85.763-74.887-67-133a118.4,118.4,0,0,1,52-66c7.838-4.759,18.751-8.45,28-11,22.863-6.3,50.661-1.326,68,6,46.121,19.486,71.8,56.643,67,121h1C231.69,854.858,234.9,854.934,238,855ZM107,729c-3.982,2.466-10.083,1.4-15,3-8.563,2.786-18.5,6.418-26,11C37.7,760.3,21.559,785.6,13,823c-1.7,7.436-.417,21.128,1,27,8.351,34.6,16.856,54.581,42,72,4.045,2.8,23.778,17.471,28,15l6-5v-1C47.213,920.428,4.69,861.793,26,804c9.159-24.84,28.386-47.7,52-58,62.93-27.454,116.041,9.639,135,56,8.01,19.588,8.921,50.276,0,70h1c3.776-5.533,11.053-7.846,12-16,8.213-12.489-1.625-48.2-5-57C203.871,754.335,169.9,728.38,107,729Zm0,11c-6.845,4.3-17.746,3.852-25,7-18.9,8.205-35.62,24.138-46,41C2.66,842.159,41.809,922.282,93,929a19.9,19.9,0,0,1,6-6v-1c-39.349-4.877-80.468-59.137-64-110,7.409-22.884,20.591-38,39-50,10.09-6.579,34.173-18.4,54-14,14.23,3.156,27.3,5.384,38,12,23.938,14.808,53.109,53.544,41,97-2.326,8.349-5.658,17.978-10,25-9.6,15.535-25.383,29.612-43,37-5.116,2.146-11.08,1.273-16,4-3.308,1.833-5.595,6.758-9,9v1h5c7.778-4.9,19.547-3.147,27-8l49-50c5.118-10.953,7-23.283,7-39-0.009-52.977-34.755-83.981-77-95C130.7,738.573,117.819,739.921,107,740Zm10,10c-4.841,2.909-21.628,3.328-28,6a95.221,95.221,0,0,0-45,40c-28.792,49.478,9.958,120.484,58,124a19.893,19.893,0,0,1,6-6v-1c-39.268-4.4-78.431-50.6-62-100a84.285,84.285,0,0,1,35-44c58.491-35.973,138.439,24.817,113,92h2c1.065-.778,3.692-1.489,5-2v2c-9.336,6.151-13.376,16.087-20,25-10.256,13.8-29.36,19.418-39,34h1c4.963-3.767,12.47-3.764,18-7,14.492-8.48,29.87-22.341,37-38C226.7,811.964,180.983,750.5,117,750Zm-1,11c-6.146,3.733-16.511,2.265-23,5-14.516,6.119-29.071,18.2-37,31-30.375,49.025,6.155,108.542,55,114a24.046,24.046,0,0,1,7-7v-1c-34.188-.329-55.756-24.352-63-52-10.366-39.565,19.129-67.729,44-77,6.7-2.5,19.135-6.5,30-4,33.785,7.769,49.107,23.924,57,58,1.8,7.782,1.353,19.715-1,27-2.253,6.978-5.929,15.29-10,21-6.748,9.465-18.578,18.359-30,23l-19,4c-2.9,1.584-4.982,6.022-8,8v1h7c6.071-3.692,16.235-1.28,22-5l45-46c6.305-14.119,3.892-36.1-1-49C179.809,782.486,156.578,760.823,116,761Zm-1,11c-5.522,3.386-14.082,2.488-20,5-12.562,5.333-24.138,16.809-31,28-27.062,44.132,12.169,95.365,57,96l9-10c-10.582,3.694-25.1-.518-32-4-18.714-9.446-41.249-31.239-32-64,6.332-22.426,22.5-36.6,46-42,39.548-9.1,74.564,35.275,62,73-3.843,11.539-13.574,23.86-23,30-3.141,2.046-6.9,1.9-10,4-4.142,2.8-6.616,8.147-11,11v1h3l19-7c11.152-6.877,22.719-18.421,28-31C200.126,814.056,161.7,771.557,115,772Zm0,11c-3.484,2.155-8.98,1.326-13,3-15.025,6.256-27.805,18.992-33,35-9.953,30.672,10.389,53.4,29,63,5.984,3.087,17.211,8.518,28,6,11.19-2.612,16.262-10.946,27-14v1a15.923,15.923,0,0,0-5,5h1c2.028-2.551,4.351-3.014,7-5,6.474-4.854,13.306-16.722,16-25C184.776,812.739,150.811,782.69,115,783Zm-3,9c26.275-.555,42.535,8.3,50,26,13.288,31.506-9.619,57.313-33,63-31.577,7.68-61.953-26.285-52-57,4.032-12.442,13.471-24.12,25-29C105.524,793.508,109.171,793.922,112,792Zm2,2c-2.837,1.91-6.479,1.5-10,3-11.719,5-20.987,16.262-25,29-8.409,26.7,20.394,59.994,48,53C177.555,866.191,174.625,792.794,114,794Zm123,62c-2.765,4.167-8.684,6.9-11,11-2.508,4.444-2.01,9.394-4,14-6.406,14.825-18.713,31.782-31,41-13.634,10.229-41.371,18.014-50,31h5c8.637-5.871,21.448-5.316,30-11l17-18c10.589-10.589,25.47-20.737,33-34C228.134,886.242,239.859,859.448,237,856Zm-16,16c-4.195,6.325-11.646,10.029-16,16-6.032,8.272-10.9,17.924-19,24-10.6,7.954-22.639,14.924-30,26h2l22-11c13.556-9,23.3-20.967,32-35C214.652,887.723,223.275,877.113,221,872Zm-42,10-13,14S180.84,883.435,179,882Zm67,21c3.484,6.445-5.641,13.639-9,17q-19.994,20.009-40,40c-2.072,2.072-12.307,16.263-19,12Zm-106,8c-5.164,3.693-16.46,3.115-25,3l-7,8h9c3.408,2.216,9.812.219,15,0a36.969,36.969,0,0,1,10-10C140.979,911.2,141.726,911.645,140,911Zm-35,13c-2.252,3.093-6.488,4.969-4,7,4.17,2.8,13.223,2.128,20,2l8-9h-1C122.848,927.371,111.383,924.223,105,924Zm50,5c-6.787,5.775-20.814,2.417-28,7-3.913,1.282-6.975,4.835-9,8h16c2.184-1.483,6.693-1.83,10-2l12-13h-1Zm-59,4c-2.252,3.093-6.488,4.969-4,7,3.835,2.708,12.589,3.393,18,4a24.046,24.046,0,0,1,7-7v-1Zm-9,9c-1.4,2-5.095,4.084-6,6-1.971.41,2,1,2,1a41.409,41.409,0,0,0,18,4,19.893,19.893,0,0,1,6-6c-1.021-.8-0.274-0.355-2-1Zm49,3c-4.908,3.037-17.9.149-21,2a28.3,28.3,0,0,0-8,8h24a32.618,32.618,0,0,1,9-9v-1h-4Z" transform="translate(0 -270)"/>
</svg>
