<svg xmlns="http://www.w3.org/2000/svg" width="933.008" height="652.985" viewBox="0 0 1777.158 1243.781">
  <defs>
    <style>
      .cls-1 {
        fill: #5affa4;
        fill-rule: evenodd;
      }
    </style>
  </defs>
  <path id="Color_Fill_1" data-name="Color Fill 1" class="cls-1" d="M202,53c14.007-.153,31.684-2.213,44,1,51.306,13.385,80.708,44.144,98,92,5.2,14.394,11.081,40.9,6,61-3.069,12.144-6.1,24.848-11,36-17.754,40.426-56.978,62.562-104,74-21.981,5.347-52.214-4.753-67-11-40.153-16.965-62.082-42.728-76-86-4.4-13.691-9.966-39.284-5-58,2.223-8.38,4.4-19.427,8-28,12.622-30.053,38-58.4,68-71,7.862-3.3,17.61-5.8,25-8C192.379,53.7,198.522,55.15,202,53Zm4,2c-3.534,2.579-7.58.513-13,2-7.813,2.143-17.482,4.748-26,8-28.567,10.907-59.262,44.155-70,73-20.784,55.832,4.958,120.721,39,146,8.781,6.52,17.765,10.709,28,16,12.137,6.275,44.5,19.559,67,14,49.552-12.239,88.76-34.655,107-78,34.885-82.9-23.429-156.942-85-177C240.168,54.82,221.68,54.954,206,55Zm-4,9c70.635-.809,107.271,25.85,128,74,33.1,76.893-21.168,147.53-79,164-47.144,13.426-103.607-11.133-123-37-9.746-13-16.222-25.474-23-42-7.718-18.82-10.067-55.6-2-78,12.1-33.591,38.143-57.9,69-73Zm4,3c-7.641,6.665-24.483,4.332-34,9-30.051,14.739-54.083,39.278-66,72-5.693,15.632-5.864,38.225-2,55,1.591,6.908-.146,12.079,2,18,12.082,33.34,34.992,56.224,67,70,12.211,5.256,36.679,16.268,58,11,45.455-11.23,80.246-33.181,97-73,31.653-75.229-25.687-142.732-80-159C235.891,66.373,220.681,66.934,206,67Zm-4,9c14.759-.177,32.035-1.62,44,2,39.508,11.952,66.021,40.084,78,80,3.3,11.009,6.563,30.546,3,45-2.445,9.918-5.074,20-9,29-10.726,24.6-35.021,44.566-60,55-9.382,3.919-22.791,4.719-33,7-19.518,4.361-36.479-5.108-48-10-36.477-15.491-67.988-47.631-68-99,0-11.2.181-20.3,3-29,10.239-31.6,30.424-55.707,58-70C178.075,81.815,195.415,80.337,202,76Zm3,3c-7.038,6.359-22.035,4.589-31,9-24.142,11.879-44.415,33.656-55,59-26.335,63.057,21.163,118.814,63,135,11.388,4.406,30.672,12.785,50,8,36.99-9.157,71.4-29.648,84-63,26.581-70.38-18.8-129.912-73-146C232.218,77.8,218.15,78.914,205,79Zm10,8,26,2c49.1,14.261,95.278,70.923,67,136-14.06,32.357-44.028,48.227-82,57-19.064,4.4-36.526-4.564-47-10-36.283-18.829-75.686-65.112-52-123,9.295-22.717,28.551-44.571,51-54C186.868,91.275,208.029,91.355,215,87Zm-10,4c-5.5,6.087-18.212,4.094-26,8-20.562,10.312-38.712,29.413-48,51-15.895,36.94,3.386,88.07,26,105,9.172,6.866,18.483,11.175,30,16,9.831,4.119,28.179,11.2,45,7,33.925-8.478,61.485-28.115,74-58,25.15-60.055-21.391-114.312-64-127C231.47,89.865,217.847,90.9,205,91Zm2,9c11.467-.167,22.627-0.635,32,2,41.853,11.767,83.1,59.038,59,116-12.264,28.986-37.488,44.223-71,52-17.852,4.143-32.86-4.532-43-9-29.246-12.885-63.872-53.043-49-99,8.225-25.416,26.26-47.05,50-57C190.608,102.65,202.153,102.956,207,100Zm8,2c-5.754,4.971-16.963,2-25,5-21.13,7.882-40.521,28.354-49,49-19.716,48.008,16.066,89.265,48,103,7.32,3.148,20.815,10.89,33,8,46.26-10.972,96.237-45.932,73-108a120.608,120.608,0,0,0-14-27c-8.94-12.463-24.627-22.134-41-27Zm-2,9c6.99,2.184,17.626.015,25,2a74.206,74.206,0,0,1,40,28,97.062,97.062,0,0,1,12,25c15.938,50.258-27.164,83.558-62,92-13.549,3.283-27.188-2.695-35-6-29.208-12.357-62.577-48.586-44-94,6.809-16.646,21.62-34.066,38-41Zm1,3c-5.211,4.491-14.726,2.264-22,5-16.051,6.038-32.438,23.314-39,39-16.867,40.319,9.315,71.822,34,87,7.352,4.521,22.061,13.409,36,10,34.452-8.425,55.316-23.322,64-58,2.156-8.61,2.822-20.634,0-30a84.079,84.079,0,0,0-12-24c-9.236-12.692-26.88-22.33-44-27C225.769,114.573,218.765,115.526,214,114Zm-7,10c32.974-.563,52.824,8.205,65,28,25.673,41.737-7.654,85.138-44,94-12.924,3.151-26.034-2.405-33-6-20.788-10.728-48.349-35.869-37-71,4.728-14.636,15.242-31.379,28-38C192.5,127.626,201.356,128.2,207,124Zm6,2c-4.067,3.426-10.261,1.836-16,4-13.526,5.1-27.48,19.8-33,33-14.4,34.435,9.045,59.584,30,72,6.355,3.765,17.867,11.031,30,8,25.257-6.31,60.177-29.333,52-64-2.307-9.781-2.364-16.922-7-24C257.112,136.849,239.015,130.667,213,126Zm-6,10c28.817-.582,45.78,6.4,56,24,19.337,33.3-9.346,67.752-35,74-34.439,8.388-68.943-29.177-58-63,4.266-13.187,14.322-26.255,26-32C199.6,137.232,204,138.023,207,136Zm6,2c-3.141,2.575-7.551,1.293-12,3-9.938,3.812-21.951,16.236-26,26-11.443,27.6,11.057,54.663,29,61,4.464,1.577,12.776,4.951,20,3,24.24-6.545,55.98-35.515,36-68C250.2,147.064,235.321,141.929,213,138ZM372,288c9.222,6.162,15.271,20.14,26,24,4.239-6.534,12.928-15.376,20-19v2l-20,21c-10.652-5.535-15.733-19.917-27-24l-23,24h-1v-1c-0.707-1.545-.129-0.135,0-3ZM1667,948c20.62-.232,43.1-1.729,60,3,64.83,18.139,102.86,57.8,125,119,6.02,16.63,14.14,53.12,8,77-3.6,14.01-6.37,31.01-12,44-24.8,57.24-70.39,89.85-138,105h-18c-25.3,0-44.54-2.38-62-9-61.65-23.4-92.35-58.45-113-123-9.12-28.52-8.99-71.59,2-99,18.79-46.86,51.91-85.523,98-105,10.45-4.414,23.03-6.993,34-10C1655.67,948.719,1663.23,950.336,1667,948Zm10,2c-4.24,3.507-11.32.356-18,2-13.58,3.344-28.8,6.673-41,12-42.05,18.365-75.23,54.26-93,97q-4.5,16.995-9,34c-7.33,29.04,1.57,62.97,10,83,20.32,48.31,44.81,79.67,93,100,14.64,6.18,51.59,21.69,76,16,20.71-4.82,40.95-6.6,58-14,48.96-21.23,79.76-57.42,97-111,8.86-27.55,10.16-66.8,0-95-7.48-20.76-16.28-40.33-28-57-21.49-30.569-56.1-50.754-97-62C1710.29,950.954,1693.1,953.059,1677,950Zm-3,13c88.19-1,133.26,38.7,159,100,14.92,35.54,15.59,88.06,0,124-18.63,42.94-57.57,75.91-105,90-13.03,3.87-28.43,3.4-41,6-2.66.55-5.89-.76-7-1q-8.505-.495-17-1c-16.18-4.08-31.9-9.2-45-16-45.21-23.47-68.22-49.88-85-102-4.79-14.87-11.41-41.34-6-62q4.005-16.995,8-34c17.17-42.75,49.13-75.955,91-94l33-9C1663.91,962.855,1670.49,965.162,1674,963Zm0,3c-3.9,3.234-9.78.458-16,2l-33,10c-37.35,16.2-70.48,49.15-85,88-32.97,88.2,20.53,169.23,82,196,15.34,6.68,49.63,21.99,76,16,8.76-1.99,19.31-2.14,29-5,46.49-13.71,84.78-47.74,103-90q4.995-16.5,10-33c6.62-26.04-.25-58.48-8-77-21.19-50.65-51.04-84.558-105-102C1712.72,966.385,1691.43,966.419,1674,966Zm5,12c13.89,0.192,32.21.188,44,4,51.07,16.514,80.86,47.29,99,97,5.63,15.43,12.68,43.94,7,66-3.09,12-6.16,25.83-11,37-14.97,34.52-46.58,61.85-82,76l-45,9c-19.32,4.24-46.93-7.88-59-13-45.06-19.12-68.32-47.25-84-96-3.85-11.97-10.2-33.97-6-52q4.005-16.995,8-34c15.07-37.56,43.63-68.75,81-84l28-8C1666.03,978.276,1673.84,981.222,1679,978Zm-7,4c-4.48,3.737-11.13,1.111-18,3a205.643,205.643,0,0,0-24,8c-35.55,15.01-62.32,47.07-77,83-9.13,22.33-8.49,58.35-1,81,15.52,46.93,38.49,74.27,82,93,12.86,5.54,43.42,17.57,66,12,54.55-13.46,95.97-38.21,116-86q4.5-16.005,9-32c5.38-21.55-1.14-48.37-7-63-20.52-51.25-44.94-79.59-100-96C1704.75,981.052,1688,981.956,1672,982Zm1,12,36,1c51.32,12.95,80.72,41.62,98,89,4.11,11.28,11.27,36.87,7,55-2.96,12.58-6.03,26.56-11,38-16.88,38.88-54.54,62.48-100,73-22.11,5.11-53.09-5.54-66-11-38.95-16.46-58.22-41.14-73-82-3.77-10.42-9.88-35.42-6-52l9-33c11.7-27.86,36.23-55.29,64-67,8.81-3.72,19.3-6.678,28-9C1664.62,994.5,1669.22,996.6,1673,994Zm-2,4q-14.505,3.5-29,7c-30.43,12.84-58.21,37.56-71,68-3.52,8.39-5.81,18.41-8,27-3.4,13.32-.52,32.12,2,43q0.495,7.005,1,14c12.32,37.63,34.76,56.14,66,75,12.43,7.51,34.11,17.32,55,15,57.89-6.44,94.95-33.85,114-79q4.005-13.995,8-28c4.49-18.4-.27-42.07-5-55-14.84-40.58-41.69-69.47-83-83C1706.84,997.36,1688.52,997.956,1671,998Zm-1,12c61.82-.75,99.77,22.85,118,65,31.28,72.33-12.4,138.6-71,156-50.5,14.99-102.05-13.94-122-42-6.01-8.45-8.72-17.68-13-28-6.94-16.71-11.96-47.51-5-69,11.52-35.59,32.02-57.01,63-73C1647.94,1014.9,1662.84,1014.73,1670,1010Zm9,3c-3.77,3.12-9.04.38-15,2-6.22,1.69-15.01,4.33-22,7-25.57,9.77-47.51,35.95-58,61-26.17,62.51,17.28,115.55,57,136,10.15,5.23,33.93,16.22,52,12,9.71-2.27,22.87-3.16,32-7,25.9-10.9,49.93-32.31,61-58,29.68-68.85-18.53-132.13-70-149C1705.87,1013.68,1691.05,1013.24,1679,1013Zm-4,13c54.22-.76,81.97,19.78,98,57,10.42,24.18,13.53,52.45,2,79-14.14,32.57-42.96,48.14-81,57-19.24,4.48-35.93-5.12-47-10-36.18-15.96-75.01-66.27-53-120,10.05-24.54,29.7-46.82,54-57C1655.83,1028.72,1668.11,1030.53,1675,1026Zm1,3c-6.62,5.97-20.1,4.25-29,8-20.66,8.69-39.33,30.28-48,51-23.41,55.95,16.42,103.18,54,119,9.77,4.11,26.06,12.2,43,8,33.54-8.31,57.35-23.77,73-50,12.37-20.72,11.24-54.12,2-76C1754.41,1049.72,1728.92,1032.27,1676,1029Zm2,12c60.43-.86,109.31,53.66,83,114-11.14,25.56-35.36,40.82-65,48-14.16,3.43-28.79-2.53-37-6-33.15-13.99-70.32-53.27-50-103,8.06-19.71,24.52-38.85,44-47C1660.46,1043.88,1671.68,1045.35,1678,1041Zm-3,4c-5.81,4.36-15.4,3.24-22,7-17.26,9.82-33.87,26.21-41,46-16.48,45.76,17.32,79.22,44,93,8.56,4.42,25.24,12.23,41,8,29.54-7.93,53.1-25.5,63-53,17.98-49.93-24.52-90.46-58-100Q1688.5,1045.505,1675,1045Zm-2,13c33.31-.54,55.5,7.22,68,27,28.43,44.98-2.79,91.94-44,102-7.12,1.74-21.34.83-27-1-23.92-7.71-59.97-39.18-49-77,5.3-18.29,17.34-37.06,33-45C1660.11,1060.9,1667.91,1061.84,1673,1058Zm6,3c-4.12,2.63-9.75,1.13-15,3-14.73,5.25-30.15,21.74-36,36-14.45,35.19,9.84,62.09,31,75,6.19,3.78,18.54,11.65,30,9,25.12-5.82,46-18.08,55-40C1762.61,1098.67,1721.79,1060.44,1679,1061Z" transform="translate(-85.063 -52.219)"/>
</svg>
