<svg xmlns="http://www.w3.org/2000/svg" width="127" height="127" viewBox="0 0 127 127">
  <defs>
    <style>
      .cls-1 {
        fill: #58f8a0;
        fill-rule: evenodd;
      }
    </style>
  </defs>
  <path id="Color_Fill_1" data-name="Color Fill 1" class="cls-1" d="M52,0h6V1H57V2H51V3H47V4H44V5H41V6H39V7H36L35,9l-6,2-2,3H25l-3,4-8,7v2l-3,2L9,35,7,36v3H6v2H5L3,51C-0.574,62.2,1.216,73.542,5,83v3H6v2H7v3l2,1,2,6,3,2v2l7,6,4,5h2l2,3,6,2,1,2h3v1h2v1c3.956,1.7,22.532,5.861,29,4v-1h6v-1h4v-1h3v-1h3v-1h2v-1h3l1-2,6-2,2-3h2l7-8,4-3v-2l3-2q1-3,2-6l2-1V88h1V86h1q0.5-3,1-6h1V76a42.719,42.719,0,0,0,0-25V47h-1q-0.5-3-1-6h-1V39h-1V36l-2-1V33h-1q-0.5-2-1-4l-3-2V25l-4-3-7-8h-2l-2-3L92,9,91,7H88V6H86V5H83V4H80V3H76V2H70L69,0h6c1.968,1.715,5.329.954,8,2V3l6,1V5l6,2V8h2l1,2h2l2,3h2l3,4,7,6v2l3,2v2l2,1v2h1q1,3,2,6h1q1,4.5,2,9h1c0.983,2.958,2.2,23.907,1,28h-1v5h-1v3h-1v3h-1v3h-1v2h-1q-1,3-2,6l-2,1v2l-3,2v2l-7,6-3,4h-2l-2,3H98l-1,2-6,2v1H89v1l-6,1v1H80v1c-2.96.984-23.9,2.2-28,1-18.485-5.412-29.054-10.962-39-25l-3-2V98L8,97,7,93H6L5,89H4L3,83H2V80H1C0.013,77.035-1.2,56.107,0,52H1V47H2l2-9H5l2-6H8V30l2-1V27l3-2V23l4-3,6-7h2l2-3h2l1-2,6-2V5Zm6,5c30.842-.441,50.874,15.04,60,36v3h1v3h1v4c3.46,10.942,1.729,22.717-2,32v3h-1q-0.5,2-1,4h-1q-0.5,2-1,4l-2,1v2l-2,1v2l-7,6-3,4H98l-1,2H95l-1,2-6,2v1H86v1l-17,4H58v-1H51v-1H47v-1l-6-1v-1H39v-1l-6-2v-1l-3-1-1-2H27l-4-5-6-5V98l-2-1-1-3H13l-1-4H11l-1-4H9V83H8V80H7V76C3.523,65.069,5.286,53.272,9,44V41h1V39h1l2-6,2-1V30l2-1V27l7-6,3-4h2l1-2h2l1-2,6-2V10h2V9ZM56,7V8H51V9l-7,1v1H42v1l-5,1-1,2-4,1-2,3H28l-2,3-7,6v2l-3,2-1,4-2,1v2H12v3H11v2H10L9,51C3.143,69.108,11.187,88.128,19,99l6,5,3,4h2l2,3,4,1,1,2h2v1h3v1h2v1c3.508,1.492,21.155,4.713,27,3,8.122-2.381,17.666-4.773,24-9l2-3h2l5-6,4-3V97l3-2q0.5-2,1-4l2-1V88h1q2.5-8.5,5-17c1.87-6.53-.669-15.959-2-20V47h-1V44h-1V42h-1V39h-1V37l-2-1q-0.5-2-1-4l-3-2V28l-4-3-5-6H97l-2-3-4-1-1-2-5-1V11H83V10H80V9C73.777,6.8,64.322,6.924,56,7Zm0,4c14.427-.22,26.312,1.5,35,7v1l3,1,1,2h2l6,7,2,1v2l2,1v2l2,1q0.5,2,1,4h1q0.5,2,1,4h1q0.5,3.5,1,7c3.023,9.368,2.254,20.521-1,29v3h-1v2h-1q-1,3-2,6l-2,1v2l-2,1v2l-6,5-2,3H95l-1,2H92l-1,2-6,2v1H83v1l-12,2v1c-5.858,1.674-23.531-1.481-27-3v-1H42v-1l-6-2v-1l-3-1-1-2H30l-3-4-5-4C14.588,86.514,7.347,68.156,13,51l1-7h1V42h1l2-6,2-1V33l2-1V30l3-2,5-6h2l1-2h2l1-2,4-1V16l11-4h5V11Zm-1,2v1H50v1l-6,1v1l-4,1v1H38l-1,2H35l-1,2H32l-2,3-7,6v2l-2,1v2l-2,1v2H18l-1,4H16l-1,6H14L13,72h1v5h1v3h1v3h1v2h1l1,4,2,1v2l2,1v2l7,6,2,3h2l1,2h2l1,2,4,1v1h2v1h3c4.123,1.629,17.569,5.185,25,3v-1h5v-1l6-1v-1l4-1v-1h2v-1l3-1,1-2h2l5-6,4-3V93l2-1V90l2-1V87h1q0.5-2,1-4h1V80h1V77h1V72h1c1.775-6.2-.637-18.286-2-22q-0.5-3-1-6h-1q-0.5-2-1-4h-1V38l-2-1V35l-2-1V32l-3-2-6-7H93l-1-2H90l-1-2H87V18l-4-1V16l-6-1V14Zm0,4,22,1v1h3v1h2v1h2v1h2v1h2v1h2l2,3h2l4,5,2,1v2l3,2v2h1v2h1v2h1v2h1v2h1c1.245,2.9,3.456,20.066,2,25h-1q-0.5,4-1,8h-1v2h-1v2h-1v2h-1v2h-1v2l-3,2v2l-5,4-1,2H92l-2,3H88v1H86v1H84v1H82v1H80v1H77v1l-22,1v-1l-8-1v-1H45v-1H43v-1H41v-1H39v-1H37l-2-3H33l-4-5-2-1V92l-3-2V88H23V86H22V84H21V82H20V80H19V77H18L17,55h1V50h1V47h1V45h1V43h1V41h1V39h1V37l3-2V33l5-4,1-2h2l2-3,4-1V22l6-2V19h3V18h5V17Zm6,1v1H54v1l-7,1v1l-6,2v1l-3,1-1,2H35l-4,5-3,2v2l-2,1v2l-2,1-1,4H22v2H21l-1,7c-4.388,13.875,1.536,28.893,8,38l5,4,2,3h2l1,2,3,1v1l4,1v1h2v1h3v1h4v1h7v1h5v-1h7v-1h4v-1h3v-1l6-2v-1l3-1,1-2h2l4-5,3-2V90l2-1V87l2-1q0.5-2,1-4h1V80h1q0.5-3.5,1-7c7.8-24.621-12.47-46.8-30-53Zm1,4c9.226,0.68,19.064,2.88,25,7l2,3h2l3,4h1v2l3,2v2l2,1q0.5,2.5,1,5h1v2h1q0.5,6,1,12h1q-1,7.5-2,15h-1v2h-1q-0.5,2.5-1,5l-2,1v2l-3,2v2l-4,3v1H89l-2,3H85l-1,2-5,1v1H77v1l-12,1v1l-15-2v-1H48v-1l-5-1-1-2H40l-2-3H36l-3-4H32V89l-3-2V85l-2-1V82H26V79H25V77H24V73a31.067,31.067,0,0,1,0-19V50h1V48h1V45h1V43l2-1V40l3-2V36L45,26h3V25h2V24C53.272,22.732,59.625,24.015,62,22Zm-4,2c-2.337,2.075-4.895.744-8,2v1l-6,2v1H42l-2,3H38l-1,2-4,3v2l-3,2-2,6H27v2H26v4H25c-1.506,4.533-1.541,14.475,0,19h1v4h1l1,4h1l1,4,3,2v2l2,1,3,4h2l2,3,6,2c3.6,1.875,13.962,6.135,21,4v-1l8-1v-1l6-2V97h2l2-3h2l1-2,4-3V87l3-2,2-6h1V77h1V73h1c1.507-4.534,1.54-14.474,0-19h-1V50h-1V48H99l-2-6-3-2V38l-2-1-3-4H87l-2-3C78.494,25.722,68.9,23.845,58,24Zm1,4c18.58-.3,26.672,5.99,34,17l2,1v2h1v3h1v3h1v5h1c1.644,5.793-1.689,13.758-3,17v3H95v2l-2,1v2l-3,2v2l-2,1v1H86l-2,3c-4.011,2.768-10.857,4.54-16,6-5.793,1.645-13.759-1.69-17-3l-5-1-1-2H43l-2-3H39l-1-2H37V86l-3-2V82l-2-1-1-5H30V73H29V68H28c-1.645-5.792,1.691-13.759,3-17V48h1V46l2-1V43l3-2V39l2-1V37h2l2-3h2l1-2h2V31h3V30C53.675,28.955,57.024,29.712,59,28Zm-2,2v1l-6,1v1l-4,1v1H45l-1,2H42v1l-4,3v2l-3,2v2H34l-1,4H32l-1,6H30V70h1v3h1v3h1l2,6,3,2v2h1l2,3h2l2,3,6,2v1h3v1h3v1H70V96l6-1V94l6-2,2-3h2V88l3-2V84l3-2,2-6h1V73h1V70h1c2.058-6.581-2.18-19.7-4-23H92V45l-3-2V41l-4-3V37H83l-1-2H80V34l-4-1V32l-6-1V30H57ZM85,42c0.732,2.612,1.573,3.209,3,5h1c1.693,2.56,5.695,16.377,4,22L89,80H88c-1.425,1.791-2.275,2.386-3,5-2.612.732-3.209,1.573-5,3v1c-2.56,1.693-16.377,5.695-22,4L47,89V88c-1.791-1.425-2.386-2.275-5-3-0.732-2.612-1.573-3.209-3-5H38c-1.693-2.56-5.695-16.377-4-22l4-11h1c1.425-1.791,2.275-2.386,3-5,2.612-.732,3.209-1.573,5-3V38c2.56-1.693,16.377-5.695,22-4l11,4v1C81.791,40.425,82.386,41.275,85,42ZM57,36v1l-5,1v1H50v1H48l-1,2H45l-6,8v2H38v2H37v3H36c-3.036,9.624,5.159,25.271,9,28h2l1,2,9,3v1H70c10.913-3.589,20.948-12.493,21-27V57H90l-3-9-2-1V45H84l-2-3H80l-1-2C73.3,36.413,66.549,35.8,57,36Zm0,4c7.969-.2,15.317-0.152,20,3l3,4,4,3v2h1v2h1v3c5.261,14.722-6.157,26.9-16,30H64c-12.771.046-21.045-7.616-24-17V57h1V54h1l1-4,2-1,5-6h2V42l5-1V40Zm4,1v1l-7,1v1l-3,1-4,5-2,1v2l-2,1-1,7H41v5h1l1,7h1l1,3,5,4,1,2h2l1,2,7,1v1h5V85l7-1V83l3-1,4-5,2-1V74l2-1,1-7h1V61H85l-1-7c-2.219-1.457-1.467-2.323-3-4C76.372,44.939,70.513,41.216,61,41Z"/>
</svg>
