<?xml version="1.0" encoding="utf-8"?>
<!-- Generator: Adobe Illustrator 24.2.1, SVG Export Plug-In . SVG Version: 6.00 Build 0)  -->
<svg version="1.1" id="Camada_1" xmlns="http://www.w3.org/2000/svg" xmlns:xlink="http://www.w3.org/1999/xlink" x="0px" y="0px"
	 viewBox="0 0 1080 1080" style="enable-background:new 0 0 1080 1080;" xml:space="preserve">
<style type="text/css">
	.st0{fill:#FFFFFF;}
	.st1{fill:#FCFEFD;}
	.st2{fill:#A2DAF0;}
	.st3{fill:#183656;}
	.st4{fill:#F9B419;}
	.st5{fill:#A1D9F0;}
	.st6{fill:#2E54A4;}
</style>
<g>
	<g>
		<polygon class="st6" points="81.03,211.99 42.82,211.99 15.81,239.01 15.81,277.22 42.82,304.23 81.03,304.23 108.04,277.22 
			108.04,239.01 		"/>
		<polygon class="st6" points="81.03,373.64 42.82,373.64 15.81,400.66 15.81,438.86 42.82,465.88 81.03,465.88 108.04,438.86 
			108.04,400.66 		"/>
		<polygon class="st6" points="81.03,535.29 42.82,535.29 15.81,562.31 15.81,600.51 42.82,627.53 81.03,627.53 108.04,600.51 
			108.04,562.31 		"/>
		<polygon class="st6" points="81.03,696.94 42.82,696.94 15.81,723.95 15.81,762.16 42.82,789.18 81.03,789.18 108.04,762.16 
			108.04,723.95 		"/>
		<polygon class="st6" points="224.94,211.99 186.74,211.99 159.72,239.01 159.72,277.22 186.74,304.23 224.94,304.23 
			251.96,277.22 251.96,239.01 		"/>
		<polygon class="st6" points="224.94,373.64 186.74,373.64 159.72,400.66 159.72,438.86 186.74,465.88 224.94,465.88 
			251.96,438.86 251.96,400.66 		"/>
		<polygon class="st6" points="224.94,535.29 186.74,535.29 159.72,562.31 159.72,600.51 186.74,627.53 224.94,627.53 
			251.96,600.51 251.96,562.31 		"/>
		<polygon class="st6" points="224.94,696.94 186.74,696.94 159.72,723.95 159.72,762.16 186.74,789.18 224.94,789.18 
			251.96,762.16 251.96,723.95 		"/>
		<polygon class="st6" points="368.86,211.99 330.65,211.99 303.63,239.01 303.63,277.22 330.65,304.23 368.86,304.23 
			395.87,277.22 395.87,239.01 		"/>
		<polygon class="st6" points="368.86,373.64 330.65,373.64 303.63,400.66 303.63,438.86 330.65,465.88 368.86,465.88 
			395.87,438.86 395.87,400.66 		"/>
		<polygon class="st6" points="368.86,535.29 330.65,535.29 303.63,562.31 303.63,600.51 330.65,627.53 368.86,627.53 
			395.87,600.51 395.87,562.31 		"/>
		<polygon class="st6" points="368.86,696.94 330.65,696.94 303.63,723.95 303.63,762.16 330.65,789.18 368.86,789.18 
			395.87,762.16 395.87,723.95 		"/>
		<polygon class="st6" points="512.77,211.99 474.56,211.99 447.55,239.01 447.55,277.22 474.56,304.23 512.77,304.23 
			539.79,277.22 539.79,239.01 		"/>
		<polygon class="st6" points="512.77,373.64 474.56,373.64 447.55,400.66 447.55,438.86 474.56,465.88 512.77,465.88 
			539.79,438.86 539.79,400.66 		"/>
		<polygon class="st6" points="512.77,535.29 474.56,535.29 447.55,562.31 447.55,600.51 474.56,627.53 512.77,627.53 
			539.79,600.51 539.79,562.31 		"/>
		<polygon class="st6" points="512.77,696.94 474.56,696.94 447.55,723.95 447.55,762.16 474.56,789.18 512.77,789.18 
			539.79,762.16 539.79,723.95 		"/>
		<polygon class="st6" points="656.68,211.99 618.48,211.99 591.46,239.01 591.46,277.22 618.48,304.23 656.68,304.23 683.7,277.22 
			683.7,239.01 		"/>
		<polygon class="st6" points="656.68,373.64 618.48,373.64 591.46,400.66 591.46,438.86 618.48,465.88 656.68,465.88 683.7,438.86 
			683.7,400.66 		"/>
		<polygon class="st6" points="656.68,535.29 618.48,535.29 591.46,562.31 591.46,600.51 618.48,627.53 656.68,627.53 683.7,600.51 
			683.7,562.31 		"/>
		<polygon class="st6" points="656.68,696.94 618.48,696.94 591.46,723.95 591.46,762.16 618.48,789.18 656.68,789.18 683.7,762.16 
			683.7,723.95 		"/>
		<polygon class="st6" points="800.6,211.99 762.39,211.99 735.37,239.01 735.37,277.22 762.39,304.23 800.6,304.23 827.61,277.22 
			827.61,239.01 		"/>
		<polygon class="st6" points="800.6,373.64 762.39,373.64 735.37,400.66 735.37,438.86 762.39,465.88 800.6,465.88 827.61,438.86 
			827.61,400.66 		"/>
		<polygon class="st6" points="800.6,535.29 762.39,535.29 735.37,562.31 735.37,600.51 762.39,627.53 800.6,627.53 827.61,600.51 
			827.61,562.31 		"/>
		<polygon class="st6" points="800.6,696.94 762.39,696.94 735.37,723.95 735.37,762.16 762.39,789.18 800.6,789.18 827.61,762.16 
			827.61,723.95 		"/>
		<polygon class="st6" points="944.51,211.99 906.3,211.99 879.29,239.01 879.29,277.22 906.3,304.23 944.51,304.23 971.53,277.22 
			971.53,239.01 		"/>
		<polygon class="st6" points="944.51,373.64 906.3,373.64 879.29,400.66 879.29,438.86 906.3,465.88 944.51,465.88 971.53,438.86 
			971.53,400.66 		"/>
		<polygon class="st6" points="944.51,535.29 906.3,535.29 879.29,562.31 879.29,600.51 906.3,627.53 944.51,627.53 971.53,600.51 
			971.53,562.31 		"/>
		<polygon class="st6" points="944.51,696.94 906.3,696.94 879.29,723.95 879.29,762.16 906.3,789.18 944.51,789.18 971.53,762.16 
			971.53,723.95 		"/>
	</g>
	<g>
		<g>
			<path class="st6" d="M144.23,384.5h-39.04l-27.61-27.61v-39.04l27.61-27.61h39.04l27.61,27.61v39.04L144.23,384.5z
				 M110.72,371.15h27.98l19.79-19.79v-27.99L138.7,303.6h-27.98l-19.79,19.78v27.99L110.72,371.15z"/>
		</g>
		<g>
			<path class="st6" d="M144.23,545.67h-39.04l-27.61-27.61v-39.04l27.61-27.61h39.04l27.61,27.61v39.04L144.23,545.67z
				 M110.72,532.32h27.98l19.79-19.79v-27.99l-19.79-19.79h-27.98l-19.79,19.79v27.99L110.72,532.32z"/>
		</g>
		<g>
			<path class="st6" d="M144.23,706.84h-39.04l-27.61-27.61v-39.04l27.61-27.61h39.04l27.61,27.61v39.04L144.23,706.84z
				 M110.72,693.48h27.98l19.79-19.79v-27.99l-19.79-19.79h-27.98l-19.79,19.79v27.99L110.72,693.48z"/>
		</g>
		<g>
			<path class="st6" d="M144.23,868.01h-39.04l-27.61-27.61v-39.04l27.61-27.61h39.04l27.61,27.61v39.04L144.23,868.01z
				 M110.72,854.65h27.98l19.79-19.79v-27.99l-19.79-19.79h-27.98l-19.79,19.79v27.99L110.72,854.65z"/>
		</g>
		<g>
			<path class="st6" d="M292.96,384.5h-39.05l-27.59-27.61v-39.04l27.59-27.61h39.05l27.61,27.61v39.04L292.96,384.5z
				 M259.44,371.15h27.99l19.79-19.79v-27.99l-19.79-19.78h-27.99l-19.77,19.78v27.99L259.44,371.15z"/>
		</g>
		<g>
			<path class="st6" d="M292.96,545.67h-39.05l-27.59-27.61v-39.04l27.59-27.61h39.05l27.61,27.61v39.04L292.96,545.67z
				 M259.44,532.32h27.99l19.79-19.79v-27.99l-19.79-19.79h-27.99l-19.77,19.79v27.99L259.44,532.32z"/>
		</g>
		<g>
			<path class="st6" d="M292.96,706.84h-39.05l-27.59-27.61v-39.04l27.59-27.61h39.05l27.61,27.61v39.04L292.96,706.84z
				 M259.44,693.48h27.99l19.79-19.79v-27.99l-19.79-19.79h-27.99l-19.77,19.79v27.99L259.44,693.48z"/>
		</g>
		<g>
			<path class="st6" d="M292.96,868.01h-39.05l-27.59-27.61v-39.04l27.59-27.61h39.05l27.61,27.61v39.04L292.96,868.01z
				 M259.44,854.65h27.99l19.79-19.79v-27.99l-19.79-19.79h-27.99l-19.77,19.79v27.99L259.44,854.65z"/>
		</g>
		<g>
			<path class="st6" d="M441.68,384.5h-39.04l-27.61-27.61v-39.04l27.61-27.61h39.04l27.61,27.61v39.04L441.68,384.5z
				 M408.17,371.15h27.98l19.79-19.79v-27.99l-19.79-19.78h-27.98l-19.79,19.78v27.99L408.17,371.15z"/>
		</g>
		<g>
			<path class="st6" d="M441.68,545.67h-39.04l-27.61-27.61v-39.04l27.61-27.61h39.04l27.61,27.61v39.04L441.68,545.67z
				 M408.17,532.32h27.98l19.79-19.79v-27.99l-19.79-19.79h-27.98l-19.79,19.79v27.99L408.17,532.32z"/>
		</g>
		<g>
			<path class="st6" d="M441.68,706.84h-39.04l-27.61-27.61v-39.04l27.61-27.61h39.04l27.61,27.61v39.04L441.68,706.84z
				 M408.17,693.48h27.98l19.79-19.79v-27.99l-19.79-19.79h-27.98l-19.79,19.79v27.99L408.17,693.48z"/>
		</g>
		<g>
			<path class="st6" d="M441.68,868.01h-39.04l-27.61-27.61v-39.04l27.61-27.61h39.04l27.61,27.61v39.04L441.68,868.01z
				 M408.17,854.65h27.98l19.79-19.79v-27.99l-19.79-19.79h-27.98l-19.79,19.79v27.99L408.17,854.65z"/>
		</g>
		<g>
			<path class="st6" d="M590.41,384.5h-39.05l-27.61-27.61v-39.04l27.61-27.61h39.05l27.61,27.61v39.04L590.41,384.5z
				 M556.89,371.15h27.99l19.79-19.79v-27.99l-19.79-19.78h-27.99l-19.79,19.78v27.99L556.89,371.15z"/>
		</g>
		<g>
			<path class="st6" d="M590.41,545.67h-39.05l-27.61-27.61v-39.04l27.61-27.61h39.05l27.61,27.61v39.04L590.41,545.67z
				 M556.89,532.32h27.99l19.79-19.79v-27.99l-19.79-19.79h-27.99l-19.79,19.79v27.99L556.89,532.32z"/>
		</g>
		<g>
			<path class="st6" d="M590.41,706.84h-39.05l-27.61-27.61v-39.04l27.61-27.61h39.05l27.61,27.61v39.04L590.41,706.84z
				 M556.89,693.48h27.99l19.79-19.79v-27.99l-19.79-19.79h-27.99l-19.79,19.79v27.99L556.89,693.48z"/>
		</g>
		<g>
			<path class="st6" d="M590.41,868.01h-39.05l-27.61-27.61v-39.04l27.61-27.61h39.05l27.61,27.61v39.04L590.41,868.01z
				 M556.89,854.65h27.99l19.79-19.79v-27.99l-19.79-19.79h-27.99l-19.79,19.79v27.99L556.89,854.65z"/>
		</g>
		<g>
			<path class="st6" d="M739.13,384.5H700.1l-27.61-27.61v-39.04l27.61-27.61h39.04l27.61,27.61v39.04L739.13,384.5z M705.62,371.15
				h27.98l19.79-19.79v-27.99L733.6,303.6h-27.98l-19.79,19.78v27.99L705.62,371.15z"/>
		</g>
		<g>
			<path class="st6" d="M739.13,545.67H700.1l-27.61-27.61v-39.04l27.61-27.61h39.04l27.61,27.61v39.04L739.13,545.67z
				 M705.62,532.32h27.98l19.79-19.79v-27.99l-19.79-19.79h-27.98l-19.79,19.79v27.99L705.62,532.32z"/>
		</g>
		<g>
			<path class="st6" d="M739.13,706.84H700.1l-27.61-27.61v-39.04l27.61-27.61h39.04l27.61,27.61v39.04L739.13,706.84z
				 M705.62,693.48h27.98l19.79-19.79v-27.99l-19.79-19.79h-27.98l-19.79,19.79v27.99L705.62,693.48z"/>
		</g>
		<g>
			<path class="st6" d="M739.13,868.01H700.1l-27.61-27.61v-39.04l27.61-27.61h39.04l27.61,27.61v39.04L739.13,868.01z
				 M705.62,854.65h27.98l19.79-19.79v-27.99l-19.79-19.79h-27.98l-19.79,19.79v27.99L705.62,854.65z"/>
		</g>
		<g>
			<path class="st6" d="M887.87,384.5h-39.05l-27.61-27.61v-39.04l27.61-27.61h39.05l27.59,27.61v39.04L887.87,384.5z
				 M854.34,371.15h27.99l19.77-19.79v-27.99l-19.77-19.78h-27.99l-19.79,19.78v27.99L854.34,371.15z"/>
		</g>
		<g>
			<path class="st6" d="M887.87,545.67h-39.05l-27.61-27.61v-39.04l27.61-27.61h39.05l27.59,27.61v39.04L887.87,545.67z
				 M854.34,532.32h27.99l19.77-19.79v-27.99l-19.77-19.79h-27.99l-19.79,19.79v27.99L854.34,532.32z"/>
		</g>
		<g>
			<path class="st6" d="M887.87,706.84h-39.05l-27.61-27.61v-39.04l27.61-27.61h39.05l27.59,27.61v39.04L887.87,706.84z
				 M854.34,693.48h27.99l19.77-19.79v-27.99l-19.77-19.79h-27.99l-19.79,19.79v27.99L854.34,693.48z"/>
		</g>
		<g>
			<path class="st6" d="M887.87,868.01h-39.05l-27.61-27.61v-39.04l27.61-27.61h39.05l27.59,27.61v39.04L887.87,868.01z
				 M854.34,854.65h27.99l19.77-19.79v-27.99l-19.77-19.79h-27.99l-19.79,19.79v27.99L854.34,854.65z"/>
		</g>
		<g>
			<path class="st6" d="M1036.58,384.5h-39.05l-27.59-27.61v-39.04l27.59-27.61h39.05l27.61,27.61v39.04L1036.58,384.5z
				 M1003.06,371.15h27.99l19.79-19.79v-27.99l-19.79-19.78h-27.99l-19.77,19.78v27.99L1003.06,371.15z"/>
		</g>
		<g>
			<path class="st6" d="M1036.58,545.67h-39.05l-27.59-27.61v-39.04l27.59-27.61h39.05l27.61,27.61v39.04L1036.58,545.67z
				 M1003.06,532.32h27.99l19.79-19.79v-27.99l-19.79-19.79h-27.99l-19.77,19.79v27.99L1003.06,532.32z"/>
		</g>
		<g>
			<path class="st6" d="M1036.58,706.84h-39.05l-27.59-27.61v-39.04l27.59-27.61h39.05l27.61,27.61v39.04L1036.58,706.84z
				 M1003.06,693.48h27.99l19.79-19.79v-27.99l-19.79-19.79h-27.99l-19.77,19.79v27.99L1003.06,693.48z"/>
		</g>
		<g>
			<path class="st6" d="M1036.58,868.01h-39.05l-27.59-27.61v-39.04l27.59-27.61h39.05l27.61,27.61v39.04L1036.58,868.01z
				 M1003.06,854.65h27.99l19.79-19.79v-27.99l-19.79-19.79h-27.99l-19.77,19.79v27.99L1003.06,854.65z"/>
		</g>
	</g>
</g>
</svg>
